<svg width="140" height="45" viewBox="0 0 140 45" fill="none" xmlns="http://www.w3.org/2000/svg">
<path fill-rule="evenodd" clip-rule="evenodd" d="M18.7408 0H17.4787C13.9069 0.208633 10.4065 1.34452 7.52529 3.40767C4.52498 5.49399 2.1914 8.4844 0.976986 11.8689C-0.356487 15.5779 -0.332675 19.7506 1.09605 23.4364C2.62002 27.4468 5.71558 30.8545 9.59694 32.8712C12.8354 34.5867 16.5977 35.2589 20.2409 34.9112C24.0032 34.6099 27.6941 33.0799 30.361 30.4836C34.3614 26.8209 35.5997 21.0487 34.7424 15.9256H18.0978V20.701C20.733 20.7165 23.3682 20.7113 26.0034 20.7062C27.321 20.7036 28.6386 20.701 29.9562 20.701C29.6705 23.0655 28.7894 25.4996 26.8845 27.0991C24.4556 29.3709 20.9791 30.3677 17.6454 30.1822C14.0736 30.0663 10.6209 28.3972 8.35871 25.7314C6.00132 22.996 4.97741 19.2869 5.47746 15.7634C5.92989 12.1934 8.02534 8.8553 11.1209 6.88488C13.9545 5.00719 17.5978 4.38129 20.9791 5.07673C23.265 5.49399 25.3605 6.67625 27.0988 8.20622C27.7379 7.5575 28.3927 6.9239 29.0496 6.28815L29.0496 6.28811L29.0497 6.28807L29.0497 6.28799L29.0498 6.28789C29.5431 5.81055 30.0376 5.332 30.5277 4.84492C27.4321 1.80815 23.1222 0.0927257 18.7408 0ZM116 1H111C111 4.778 111.003 8.556 111.005 12.3331C111.01 19.8847 111.016 27.4328 111 34.9702C112.245 35.006 113.503 35.0015 114.754 34.997H114.754L114.757 34.997C115.172 34.9955 115.587 34.994 116 34.994V1ZM45.2588 12.2099C48.3753 11.6183 51.7515 12.2809 54.3249 14.1505C56.6622 15.8071 58.2913 18.4104 58.7871 21.2503C59.4245 24.5399 58.6218 28.1371 56.497 30.7403C54.2068 33.6512 50.4529 35.2132 46.7935 34.9765C43.4409 34.7872 40.1828 33.1069 38.1996 30.3617C35.9567 27.3324 35.4137 23.1672 36.6414 19.6174C37.8691 15.8071 41.3397 12.8962 45.2588 12.2099ZM45.9671 16.7065C44.6922 17.0378 43.5117 17.7714 42.6618 18.8127C40.3717 21.558 40.5133 26.0308 43.0396 28.5867C44.4797 30.054 46.6518 30.7403 48.6586 30.338C50.5238 30.0067 52.1528 28.7524 53.05 27.0958C54.6082 24.2795 54.1596 20.3983 51.7751 18.1974C50.2405 16.7775 47.9975 16.1858 45.9671 16.7065ZM80.3943 15.0292C77.7245 12.5196 73.826 11.5252 70.2583 12.2118C66.4071 12.8747 63.0048 15.6921 61.7053 19.3856C60.4058 23.008 60.902 27.2697 63.1938 30.3712C65.2258 33.1887 68.6044 34.8933 72.0303 34.988C75.6217 35.1538 79.2602 33.5912 81.5048 30.75C85.2142 26.2516 84.7417 18.9357 80.3943 15.0292ZM67.6593 18.7937C68.5099 17.7756 69.6913 17.0417 70.9671 16.7102C72.9754 16.1893 75.22 16.7575 76.7558 18.1781C79.1657 20.38 79.6146 24.2628 78.0789 27.1039C77.181 28.7613 75.5272 29.9924 73.6842 30.3475C71.6051 30.7737 69.3605 30.0161 67.9192 28.4771C65.4856 25.8965 65.3911 21.4927 67.6593 18.7937ZM91.5364 13.5704C94.2528 11.8822 97.8667 11.4132 100.796 12.867C101.717 13.2656 102.473 13.9455 103.205 14.6255C103.217 14.309 103.217 13.9866 103.217 13.6612C103.217 13.3359 103.217 13.0076 103.229 12.6794C104.02 12.6911 104.811 12.6911 105.605 12.6911H105.606C106.4 12.6911 107.197 12.6911 108 12.7028V33.3831C107.976 36.5015 107.173 39.8075 104.906 42.0819C102.426 44.5907 98.6226 45.3645 95.1976 44.8486C91.5364 44.3094 88.3476 41.6599 86.9304 38.3069C87.8106 37.8846 88.7181 37.5166 89.6303 37.1467L89.6306 37.1465C90.1871 36.9209 90.7454 36.6945 91.3002 36.4546C92.1269 38.3773 93.804 40.0186 95.9062 40.3937C98.0085 40.7689 100.441 40.253 101.811 38.518C103.276 36.736 103.276 34.2975 103.205 32.1169C102.118 33.1721 100.867 34.1099 99.3548 34.4616C96.0716 35.3761 92.4576 34.2506 89.9302 32.0466C87.3792 29.8426 85.8674 26.4428 86.0092 23.0664C86.08 19.2445 88.2531 15.5634 91.5364 13.5704ZM96.4259 16.5716C94.985 16.8061 93.6386 17.6033 92.7174 18.7053C90.4971 21.3313 90.4971 25.5283 92.7411 28.1075C94.0166 29.6316 96.0716 30.4756 98.0557 30.2646C99.9217 30.077 101.646 28.9047 102.567 27.2869C104.126 24.5436 103.866 20.8155 101.764 18.4239C100.465 16.9467 98.3864 16.2199 96.4259 16.5716ZM133.302 12.653C129.695 11.257 125.362 12.1562 122.551 14.8062C118.171 18.8996 117.797 26.5185 121.685 31.0614C124.05 33.9481 127.938 35.3678 131.592 34.9182C134.894 34.6106 137.962 32.6704 139.789 29.902C139.145 29.4642 138.501 29.0323 137.857 28.6004C137.213 28.1687 136.569 27.737 135.925 27.2993C135.409 27.9618 134.871 28.648 134.192 29.1685C132.482 30.5409 130.046 30.8012 128.008 30.0677C126.556 29.5708 125.479 28.3404 124.776 26.9917C127.317 25.927 129.853 24.8681 132.388 23.8093C134.923 22.7504 137.459 21.6916 140 20.6269C138.899 17.2433 136.721 13.9544 133.302 12.653ZM123.956 23.1586C123.933 21.7626 124.261 20.3429 125.057 19.1835C126.299 17.3379 128.617 16.1312 130.842 16.5335C132.224 16.7464 133.583 17.5509 134.145 18.8759C130.749 20.3193 127.353 21.7389 123.956 23.1586Z" fill="#B8BCC2"/>
</svg>
