<?xml version="1.0" standalone="no"?>
<!DOCTYPE svg PUBLIC "-//W3C//DTD SVG 20010904//EN"
 "http://www.w3.org/TR/2001/REC-SVG-20010904/DTD/svg10.dtd">
<svg version="1.0" xmlns="http://www.w3.org/2000/svg"
 width="250px" height="250px" viewBox="0 0 512.000000 512.000000"
 preserveAspectRatio="xMidYMid meet">

<g transform="translate(0.000000,512.000000) scale(0.100000,-0.100000)"
fill="#000000" stroke="none">
<path d="M2320 5109 c-491 -47 -981 -246 -1366 -557 -599 -482 -954 -1224
-954 -1992 0 -577 204 -1155 568 -1606 482 -599 1224 -954 1992 -954 577 0
1155 204 1606 568 599 482 954 1224 954 1992 0 577 -204 1155 -568 1606 -433
538 -1071 879 -1767 944 -125 11 -340 11 -465 -1z m-335 -1718 c69 -32 105
-86 105 -158 0 -88 -79 -177 -286 -324 -141 -101 -208 -164 -234 -221 -27 -59
-25 -82 11 -123 62 -70 244 -139 618 -234 l228 -59 7 102 c31 450 149 781 307
860 62 31 99 32 155 7 77 -35 139 -127 250 -374 82 -181 146 -286 211 -348 43
-41 58 -49 90 -49 84 0 131 59 288 365 104 204 141 260 194 296 47 32 125 33
166 1 79 -62 164 -230 259 -513 81 -242 196 -631 196 -664 0 -71 -96 -145
-191 -145 -78 0 -91 17 -149 203 -141 452 -215 620 -259 592 -5 -3 -28 -40
-51 -83 -97 -180 -248 -352 -360 -409 -71 -37 -154 -44 -214 -19 -84 35 -175
156 -343 455 -54 95 -108 180 -120 188 -19 13 -24 12 -41 -5 -11 -11 -27 -51
-35 -88 -32 -140 -40 -279 -33 -565 6 -267 6 -277 -14 -302 -46 -58 -176 -88
-228 -51 -35 24 -62 87 -74 173 l-12 78 -83 12 c-120 17 -295 70 -563 171
-391 147 -428 154 -476 98 -48 -58 -70 -130 -99 -319 -13 -87 -81 -139 -184
-142 -50 -2 -63 2 -84 21 -14 13 -28 40 -32 60 -49 275 -168 691 -284 989 -28
73 -51 145 -51 161 0 45 34 80 96 98 66 19 113 13 166 -21 59 -39 97 -107 159
-282 62 -178 81 -216 107 -211 9 2 32 32 51 68 111 215 242 400 368 521 117
112 202 166 306 194 71 19 115 18 162 -4z"/>
</g>
</svg>
